<svg xmlns="http://www.w3.org/2000/svg" viewBox="0 0 1200 800" preserveAspectRatio="xMidYMid slice">
  <defs>
    <linearGradient id="grad1" x1="0%" y1="0%" x2="0%" y2="100%">
      <stop offset="0%" style="stop-color:#f5f7fa;stop-opacity:1" />
      <stop offset="100%" style="stop-color:#e8f0f7;stop-opacity:1" />
    </linearGradient>
  </defs>
  
  <!-- Background -->
  <rect width="1200" height="800" fill="url(#grad1)"/>
  
  <!-- Wave 1 -->
  <path d="M 0 200 Q 300 100 600 200 T 1200 200 L 1200 400 Q 900 500 600 400 T 0 400 Z" fill="#d3dfe3" opacity="0.6"/>
  
  <!-- Wave 2 -->
  <path d="M 0 300 Q 300 200 600 300 T 1200 300 L 1200 500 Q 900 600 600 500 T 0 500 Z" fill="#c3d1b8" opacity="0.4"/>
  
  <!-- Wave 3 -->
  <path d="M 0 400 Q 300 300 600 400 T 1200 400 L 1200 600 Q 900 700 600 600 T 0 600 Z" fill="#a3c6c4" opacity="0.3"/>
  
  <!-- Wave 4 -->
  <path d="M 0 500 Q 300 400 600 500 T 1200 500 L 1200 800 Q 900 800 600 700 T 0 800 Z" fill="#234c6a" opacity="0.15"/>
</svg>